<svg width="20" height="20" viewBox="0 0 20 20" fill="none" xmlns="http://www.w3.org/2000/svg">
<path d="M0 1.30435C0 0.958413 0.112882 0.626647 0.313814 0.382034C0.514746 0.137422 0.787268 0 1.07143 0H18.9286C19.2127 7.29003e-09 19.4853 0.137422 19.6862 0.382034C19.8871 0.626647 20 0.958413 20 1.30435C20 1.65028 19.8871 1.98205 19.6862 2.22666C19.4853 2.47127 19.2127 2.6087 18.9286 2.6087H1.07143C0.787268 2.6087 0.514746 2.47127 0.313814 2.22666C0.112882 1.98205 0 1.65028 0 1.30435ZM0 10C0 9.65407 0.112882 9.3223 0.313814 9.07769C0.514746 8.83307 0.787268 8.69565 1.07143 8.69565H18.9286C19.2127 8.69565 19.4853 8.83307 19.6862 9.07769C19.8871 9.3223 20 9.65407 20 10C20 10.3459 19.8871 10.6777 19.6862 10.9223C19.4853 11.1669 19.2127 11.3043 18.9286 11.3043H1.07143C0.787268 11.3043 0.514746 11.1669 0.313814 10.9223C0.112882 10.6777 0 10.3459 0 10ZM1.07143 17.3913H18.9286C19.2127 17.3913 19.4853 17.5287 19.6862 17.7733C19.8871 18.018 20 18.3497 20 18.6957C20 19.0416 19.8871 19.3734 19.6862 19.618C19.4853 19.8626 19.2127 20 18.9286 20H1.07143C0.787268 20 0.514746 19.8626 0.313814 19.618C0.112882 19.3734 0 19.0416 0 18.6957C0 18.3497 0.112882 18.018 0.313814 17.7733C0.514746 17.5287 0.787268 17.3913 1.07143 17.3913Z" fill="black"/>
</svg>
